<svg width="1188" height="3479" viewBox="0 0 1188 3479" fill="none" xmlns="http://www.w3.org/2000/svg">
<path d="M1165.1 0C1165.1 0 1137.14 229.07 1073.1 185.5C902.602 69.5 695.062 126.549 736.102 242C789.603 392.5 632.845 303.225 618.102 376.5C599.437 469.273 689.588 564.292 783.603 553.5C853.055 545.528 844.803 427.6 914.603 431.5C987.376 435.566 1027.64 505.639 1029.6 578.5C1032.01 667.939 950.455 708.291 866.603 739.5C782.22 770.907 713.83 677.211 636.602 723.5C552.135 774.128 517.927 866.587 549.102 960C580.277 1053.41 776.603 1131 776.603 1131C880.218 1179.34 933.634 1265.7 930.604 1380C926.552 1532.83 767.093 1558.84 636.602 1638.5C476.371 1736.32 428 1749.94 313.5 1788.5C199 1827.06 51.1841 1919.11 28.1013 2024C-29.3133 2284.88 431.568 2379.9 587.603 2417.5C587.603 2417.5 969.5 2478.5 1065.5 2682C1161.5 2885.5 889.205 3012 757.103 3052C625.002 3092 477.253 3108.72 427.603 3250.5C398.201 3334.46 439.103 3478 439.103 3478" stroke="black" stroke-width="3"/>
<path d="M1172.1 0C1172.1 0 1144.14 229.07 1080.1 185.5C909.602 69.5 702.062 126.549 743.102 242C796.603 392.5 639.845 303.225 625.102 376.5C606.437 469.273 696.588 564.292 790.603 553.5C860.055 545.528 851.803 427.6 921.603 431.5C994.376 435.566 1034.64 505.639 1036.6 578.5C1039.01 667.939 957.455 708.291 873.603 739.5C789.22 770.907 720.83 677.211 643.602 723.5C559.135 774.128 524.927 866.587 556.102 960C587.277 1053.41 783.603 1131 783.603 1131C887.218 1179.34 940.634 1265.7 937.604 1380C933.552 1532.83 774.093 1558.84 643.602 1638.5C483.371 1736.32 435 1749.94 320.5 1788.5C206 1827.06 58.1841 1919.11 35.1013 2024C-22.3133 2284.88 438.568 2379.9 594.603 2417.5C594.603 2417.5 976.5 2478.5 1072.5 2682C1168.5 2885.5 896.205 3012 764.103 3052C632.002 3092 484.253 3108.72 434.603 3250.5C405.201 3334.46 446.103 3478 446.103 3478" stroke="black" stroke-width="3"/>
<path d="M1179.1 0C1179.1 0 1151.14 229.07 1087.1 185.5C916.602 69.5 709.062 126.549 750.102 242C803.603 392.5 646.845 303.225 632.102 376.5C613.437 469.273 703.588 564.292 797.603 553.5C867.055 545.528 858.803 427.6 928.603 431.5C1001.38 435.566 1041.64 505.639 1043.6 578.5C1046.01 667.939 964.455 708.291 880.603 739.5C796.22 770.907 727.83 677.211 650.602 723.5C566.135 774.128 531.927 866.587 563.102 960C594.277 1053.41 790.603 1131 790.603 1131C894.218 1179.34 947.634 1265.7 944.604 1380C940.552 1532.83 781.093 1558.84 650.602 1638.5C490.371 1736.32 442 1749.94 327.5 1788.5C213 1827.06 65.1841 1919.11 42.1013 2024C-15.3133 2284.88 445.568 2379.9 601.603 2417.5C601.603 2417.5 983.5 2478.5 1079.5 2682C1175.5 2885.5 903.205 3012 771.103 3052C639.002 3092 491.253 3108.72 441.603 3250.5C412.201 3334.46 453.103 3478 453.103 3478" stroke="black" stroke-width="3"/>
<path d="M1186.1 0C1186.1 0 1158.14 229.07 1094.1 185.5C923.602 69.5 716.062 126.549 757.102 242C810.603 392.5 653.845 303.225 639.102 376.5C620.437 469.273 710.588 564.292 804.603 553.5C874.055 545.528 865.803 427.6 935.603 431.5C1008.38 435.566 1048.64 505.639 1050.6 578.5C1053.01 667.939 971.455 708.291 887.603 739.5C803.22 770.907 734.83 677.211 657.602 723.5C573.135 774.128 538.927 866.587 570.102 960C601.277 1053.41 797.603 1131 797.603 1131C901.218 1179.34 954.634 1265.7 951.604 1380C947.552 1532.83 788.093 1558.84 657.602 1638.5C497.371 1736.32 449 1749.94 334.5 1788.5C220 1827.06 72.1841 1919.11 49.1013 2024C-8.31327 2284.88 452.568 2379.9 608.603 2417.5C608.603 2417.5 990.5 2478.5 1086.5 2682C1182.5 2885.5 910.205 3012 778.103 3052C646.002 3092 498.253 3108.72 448.603 3250.5C419.201 3334.46 460.103 3478 460.103 3478" stroke="black" stroke-width="3"/>
<path d="M1158.1 0C1158.1 0 1130.14 229.07 1066.1 185.5C895.602 69.5 688.062 126.549 729.102 242C782.603 392.5 625.845 303.225 611.102 376.5C592.437 469.273 682.588 564.292 776.603 553.5C846.055 545.528 837.803 427.6 907.603 431.5C980.376 435.566 1020.64 505.639 1022.6 578.5C1025.01 667.939 943.455 708.291 859.603 739.5C775.22 770.907 706.83 677.211 629.602 723.5C545.135 774.128 510.927 866.587 542.102 960C573.277 1053.41 769.603 1131 769.603 1131C873.218 1179.34 926.634 1265.7 923.604 1380C919.552 1532.83 760.093 1558.84 629.602 1638.5C469.371 1736.32 421 1749.94 306.5 1788.5C192 1827.06 44.1841 1919.11 21.1013 2024C-36.3133 2284.88 424.568 2379.9 580.603 2417.5C580.603 2417.5 962.5 2478.5 1058.5 2682C1154.5 2885.5 882.205 3012 750.103 3052C618.002 3092 470.253 3108.72 420.603 3250.5C391.201 3334.46 432.103 3478 432.103 3478" stroke="black" stroke-width="3"/>
<path d="M1151.1 0C1151.1 0 1123.14 229.07 1059.1 185.5C888.602 69.5 681.062 126.549 722.102 242C775.603 392.5 618.845 303.225 604.102 376.5C585.437 469.273 675.588 564.292 769.603 553.5C839.055 545.528 830.803 427.6 900.603 431.5C973.376 435.566 1013.64 505.639 1015.6 578.5C1018.01 667.939 936.455 708.291 852.603 739.5C768.22 770.907 699.83 677.211 622.602 723.5C538.135 774.128 503.927 866.587 535.102 960C566.277 1053.41 762.603 1131 762.603 1131C866.218 1179.34 919.634 1265.7 916.604 1380C912.552 1532.83 753.093 1558.84 622.602 1638.5C462.371 1736.32 414 1749.94 299.5 1788.5C185 1827.06 37.1841 1919.11 14.1013 2024C-43.3133 2284.88 417.568 2379.9 573.603 2417.5C573.603 2417.5 955.5 2478.5 1051.5 2682C1147.5 2885.5 875.205 3012 743.103 3052C611.002 3092 463.253 3108.72 413.603 3250.5C384.201 3334.46 425.103 3478 425.103 3478" stroke="black" stroke-width="3"/>
<path d="M1144.1 0C1144.1 0 1116.14 229.07 1052.1 185.5C881.602 69.5 674.062 126.549 715.102 242C768.603 392.5 611.845 303.225 597.102 376.5C578.437 469.273 668.588 564.292 762.603 553.5C832.055 545.528 823.803 427.6 893.603 431.5C966.376 435.566 1006.64 505.639 1008.6 578.5C1011.01 667.939 929.455 708.291 845.603 739.5C761.22 770.907 692.83 677.211 615.602 723.5C531.135 774.128 496.927 866.587 528.102 960C559.277 1053.41 755.603 1131 755.603 1131C859.218 1179.34 912.634 1265.7 909.604 1380C905.552 1532.83 746.093 1558.84 615.602 1638.5C455.371 1736.32 407 1749.94 292.5 1788.5C178 1827.06 30.1841 1919.11 7.10125 2024C-50.3133 2284.88 410.568 2379.9 566.603 2417.5C566.603 2417.5 948.5 2478.5 1044.5 2682C1140.5 2885.5 868.205 3012 736.103 3052C604.002 3092 456.253 3108.72 406.603 3250.5C377.201 3334.46 418.103 3478 418.103 3478" stroke="black" stroke-width="3"/>
</svg>
